<svg xmlns="http://www.w3.org/2000/svg" width="256" height="256" viewBox="0 0 100 100"><rect width="100" height="100" rx="20" fill="#000000"></rect><path fill="#fff" d="M32.72 33.45L32.72 33.45Q33.10 34.04 33.39 35.02Q33.69 35.99 33.69 37.12L33.69 37.12Q33.69 39.17 32.80 40.09Q31.91 41.01 30.40 41.01L30.40 41.01L24.30 41.01L24.30 66.12Q23.70 66.28 22.46 66.44Q21.22 66.61 19.92 66.61L19.92 66.61Q17.06 66.61 15.95 65.63Q14.85 64.66 14.85 62.12L14.85 62.12L14.85 41.01L6.69 41.01Q6.31 40.42 6.02 39.44Q5.72 38.47 5.72 37.34L5.72 37.34Q5.72 35.29 6.61 34.37Q7.50 33.45 9.01 33.45L9.01 33.45L32.72 33.45ZM59.72 58.34L59.72 58.34Q59.72 62.45 56.64 64.77Q53.56 67.09 47.57 67.09L47.57 67.09Q45.30 67.09 43.36 66.77Q41.41 66.44 40.04 65.77Q38.66 65.09 37.88 64.07Q37.09 63.04 37.09 61.64L37.09 61.64Q37.09 60.34 37.63 59.45Q38.17 58.56 38.93 57.97L38.93 57.97Q40.50 58.83 42.52 59.50Q44.55 60.18 47.19 60.18L47.19 60.18Q48.87 60.18 49.76 59.69Q50.65 59.21 50.65 58.40L50.65 58.40Q50.65 57.64 50 57.21Q49.35 56.78 47.84 56.51L47.84 56.51L46.22 56.18Q41.52 55.27 39.23 53.29Q36.93 51.32 36.93 47.65L36.93 47.65Q36.93 45.65 37.80 44.03Q38.66 42.41 40.23 41.33Q41.79 40.25 43.98 39.66Q46.17 39.06 48.81 39.06L48.81 39.06Q50.81 39.06 52.56 39.36Q54.32 39.66 55.62 40.25Q56.91 40.85 57.67 41.79Q58.42 42.74 58.42 44.03L58.42 44.03Q58.42 45.28 57.97 46.17Q57.51 47.06 56.80 47.65L56.80 47.65Q56.37 47.38 55.51 47.08Q54.64 46.79 53.62 46.54Q52.59 46.30 51.54 46.14Q50.49 45.98 49.62 45.98L49.62 45.98Q47.84 45.98 46.87 46.38Q45.90 46.79 45.90 47.65L45.90 47.65Q45.90 48.25 46.44 48.62Q46.98 49.00 48.49 49.33L48.49 49.33L50.16 49.70Q55.35 50.89 57.53 52.97Q59.72 55.05 59.72 58.34ZM84.07 63.09L83.10 59.37L73.33 59.37Q72.79 61.31 72.38 62.99Q71.98 64.66 71.60 66.12L71.60 66.12Q70.84 66.39 70.01 66.58Q69.17 66.77 67.98 66.77L67.98 66.77Q65.23 66.77 63.91 65.82Q62.58 64.88 62.58 63.20L62.58 63.20Q62.58 62.45 62.80 61.69Q63.01 60.94 63.28 59.91L63.28 59.91Q63.66 58.45 64.34 56.26Q65.01 54.08 65.82 51.57Q66.63 49.06 67.55 46.44Q68.47 43.82 69.28 41.47Q70.09 39.12 70.76 37.26Q71.44 35.39 71.82 34.42L71.82 34.42Q72.73 33.88 74.60 33.40Q76.46 32.91 78.35 32.91L78.35 32.91Q81.05 32.91 83.13 33.69Q85.21 34.48 85.80 36.20L85.80 36.20Q86.77 38.96 87.91 42.68Q89.04 46.41 90.18 50.38Q91.31 54.35 92.39 58.21Q93.47 62.07 94.28 65.04L94.28 65.04Q93.63 65.80 92.34 66.25Q91.04 66.71 89.26 66.71L89.26 66.71Q86.61 66.71 85.59 65.85Q84.56 64.98 84.07 63.09L84.07 63.09ZM78.62 41.39L78.30 41.39Q77.54 43.60 76.62 46.30Q75.70 49.00 74.84 52.08L74.84 52.08L81.54 52.08Q80.78 49.00 80.00 46.27Q79.21 43.55 78.62 41.39L78.62 41.39Z"></path></svg>